<svg id="svg" version="1.1" xmlns="http://www.w3.org/2000/svg" xmlns:xlink="http://www.w3.org/1999/xlink" width="400" height="67.44186046511628" viewBox="0, 0, 400,67.44186046511628"><g id="svgg"><path id="path0" d="M0.000 4.083 L 0.000 8.167 0.645 8.167 L 1.291 8.167 1.386 10.958 C 1.518 14.791,1.558 14.887,3.083 15.035 L 3.583 15.083 3.624 17.000 C 3.683 19.747,3.634 19.641,4.876 19.700 L 5.917 19.750 6.013 22.750 C 6.134 26.514,6.074 26.366,7.562 26.589 L 8.333 26.705 8.336 28.644 C 8.338 30.925,8.419 31.333,8.866 31.333 C 9.046 31.333,9.525 31.665,9.930 32.070 L 10.667 32.807 10.669 34.779 C 10.672 38.058,10.814 38.329,12.542 38.332 L 13.000 38.333 13.000 40.667 C 13.000 41.950,13.060 43.000,13.133 43.000 C 13.206 43.000,13.360 43.258,13.474 43.574 C 13.683 44.153,14.541 44.833,15.061 44.833 C 15.300 44.833,15.333 45.118,15.333 47.146 C 15.333 49.820,15.348 49.849,16.760 49.966 L 17.667 50.041 17.667 52.526 C 17.667 55.755,18.042 56.667,19.370 56.667 L 19.833 56.667 19.833 58.718 C 19.833 61.213,19.905 61.354,21.225 61.463 L 22.167 61.541 22.168 63.562 C 22.169 64.674,22.217 65.977,22.275 66.458 L 22.380 67.333 29.190 67.333 L 36.000 67.333 36.000 66.598 C 36.000 65.870,36.007 65.861,36.666 65.750 C 37.443 65.619,38.000 65.022,38.000 64.321 C 38.000 64.063,38.075 63.807,38.167 63.750 C 38.264 63.690,38.333 62.728,38.333 61.430 L 38.333 59.213 39.274 59.116 C 40.569 58.983,40.575 58.971,40.642 56.398 C 40.697 54.264,40.719 54.139,41.063 54.008 C 41.569 53.815,42.500 52.917,42.500 52.620 C 42.500 52.485,42.612 52.281,42.750 52.167 C 42.948 52.002,43.000 51.520,43.000 49.832 L 43.000 47.705 43.881 47.595 C 45.145 47.437,45.232 47.243,45.306 44.419 L 45.367 42.089 46.056 41.378 C 46.435 40.987,46.875 40.667,47.033 40.667 C 47.528 40.667,47.667 40.089,47.667 38.021 L 47.667 36.020 48.430 35.906 C 49.830 35.696,50.000 35.197,50.000 31.310 L 50.000 29.000 50.796 29.000 C 52.232 29.000,52.333 28.825,52.333 26.333 L 52.333 24.185 53.125 24.134 C 54.350 24.056,54.553 23.507,54.639 20.042 L 54.706 17.333 55.690 17.333 C 56.932 17.333,57.000 17.191,57.000 14.592 L 57.000 12.706 57.708 12.520 C 58.968 12.189,59.333 11.157,59.333 7.926 L 59.333 5.833 60.091 5.833 C 61.503 5.833,61.667 5.488,61.667 2.508 L 61.667 0.000 54.750 0.000 L 47.833 0.000 47.833 1.833 L 47.833 3.667 47.000 3.667 C 45.631 3.667,45.500 3.908,45.500 6.417 C 45.500 8.289,45.471 8.500,45.208 8.501 C 44.553 8.502,43.838 9.143,43.632 9.914 C 43.521 10.328,43.371 10.667,43.299 10.667 C 43.226 10.667,43.167 11.679,43.167 12.917 L 43.167 15.167 42.692 15.167 C 41.057 15.167,40.948 15.396,40.839 19.083 L 40.750 22.083 39.784 22.169 C 38.532 22.281,38.506 22.337,38.503 24.875 L 38.500 27.000 37.984 27.000 C 36.522 27.000,36.331 27.434,36.215 31.023 L 36.125 33.796 35.204 33.872 C 33.903 33.980,33.833 34.123,33.833 36.665 L 33.833 38.766 33.238 38.981 C 32.641 39.197,32.002 39.994,32.001 40.524 C 32.000 40.674,31.888 40.841,31.750 40.894 C 31.545 40.972,31.500 41.394,31.500 43.245 L 31.500 45.500 30.692 45.500 C 29.682 45.500,29.391 45.792,29.189 47.010 C 29.062 47.779,29.036 47.556,29.019 45.542 L 29.000 43.167 28.509 43.167 C 28.138 43.167,27.965 43.055,27.799 42.710 C 27.679 42.459,27.375 42.155,27.123 42.034 L 26.667 41.815 26.667 39.247 C 26.667 36.341,26.705 36.424,25.257 36.225 L 24.500 36.121 24.500 33.904 C 24.500 32.684,24.435 31.646,24.355 31.597 C 24.275 31.547,24.168 31.297,24.116 31.041 C 23.972 30.317,23.406 29.717,22.753 29.595 L 22.167 29.485 22.167 27.358 C 22.167 24.779,22.101 24.647,20.775 24.537 L 19.833 24.459 19.832 22.354 C 19.829 18.533,19.557 17.748,18.195 17.634 L 17.583 17.583 17.500 15.417 C 17.412 13.118,17.337 12.833,16.823 12.833 C 16.646 12.833,16.200 12.533,15.833 12.167 L 15.167 11.500 15.166 9.458 C 15.164 6.454,15.068 6.210,13.828 6.069 L 12.833 5.957 12.833 3.845 C 12.833 1.666,12.741 1.333,12.133 1.333 C 11.894 1.333,11.833 1.198,11.833 0.667 L 11.833 0.000 5.917 0.000 L 0.000 0.000 0.000 4.083 M108.333 33.667 L 108.333 67.333 115.250 67.333 L 122.167 67.333 122.167 33.667 L 122.167 0.000 115.250 0.000 L 108.333 0.000 108.333 33.667 M147.833 33.667 L 147.833 67.333 154.750 67.333 L 161.667 67.333 161.667 54.000 L 161.667 40.667 164.083 40.667 L 166.500 40.667 166.500 41.563 C 166.500 42.662,166.706 42.865,167.927 42.966 L 168.833 43.041 168.833 44.086 C 168.833 45.275,168.895 45.333,170.159 45.333 L 170.958 45.333 171.031 46.712 C 171.131 48.628,171.493 49.335,172.541 49.667 L 173.332 49.917 173.332 50.719 C 173.334 51.981,173.505 52.167,174.673 52.167 L 175.667 52.167 175.667 53.333 C 175.667 54.262,175.718 54.500,175.918 54.500 C 176.056 54.500,176.285 54.788,176.426 55.140 C 176.599 55.575,176.893 55.899,177.341 56.151 C 177.961 56.500,178.000 56.567,178.002 57.302 C 178.007 58.780,178.374 59.167,179.775 59.167 L 180.333 59.167 180.333 60.133 C 180.333 61.335,180.495 61.500,181.677 61.500 L 182.620 61.500 182.706 63.448 C 182.805 65.681,182.918 65.875,184.244 66.074 C 184.972 66.183,185.000 66.208,185.000 66.760 L 185.000 67.333 192.583 67.333 L 200.167 67.333 200.167 66.763 C 200.167 66.317,200.021 66.049,199.500 65.539 L 198.833 64.885 198.833 63.538 C 198.833 61.869,198.679 61.667,197.405 61.667 L 196.500 61.667 196.500 60.656 C 196.500 58.692,195.967 57.639,194.817 57.329 C 194.211 57.166,194.206 57.158,194.133 56.143 C 194.044 54.919,193.789 54.667,192.642 54.667 L 191.849 54.667 191.799 53.548 L 191.750 52.429 191.171 52.311 C 190.853 52.247,190.560 52.095,190.519 51.975 C 190.479 51.855,190.234 51.569,189.973 51.341 C 189.564 50.982,189.499 50.802,189.491 50.005 C 189.473 48.330,189.238 47.941,188.132 47.766 L 187.181 47.615 187.132 46.599 L 187.083 45.583 185.958 45.534 L 184.833 45.485 184.819 44.451 C 184.780 41.575,184.513 41.000,183.218 41.000 L 182.500 41.000 182.497 40.042 C 182.494 38.739,182.374 38.602,181.131 38.484 C 180.306 38.405,180.525 38.378,182.167 38.356 C 184.680 38.322,184.706 38.309,184.800 37.013 L 184.873 36.000 185.818 36.000 C 186.434 36.000,186.991 35.884,187.417 35.667 C 187.776 35.483,188.162 35.333,188.273 35.333 C 188.584 35.333,189.167 34.503,189.167 34.061 C 189.167 33.844,189.238 33.667,189.326 33.667 C 189.413 33.667,189.507 33.160,189.534 32.542 L 189.583 31.417 190.495 31.365 C 191.715 31.296,191.833 31.166,191.833 29.899 C 191.833 28.934,191.867 28.833,192.208 28.764 C 193.662 28.469,193.610 28.522,193.979 26.956 C 194.178 26.116,194.252 11.751,194.062 11.042 C 193.993 10.784,193.835 10.667,193.558 10.667 C 193.277 10.667,193.055 10.496,192.822 10.101 C 192.638 9.790,192.341 9.497,192.161 9.450 C 191.866 9.373,191.833 9.215,191.833 7.882 C 191.833 6.112,191.752 6.000,190.467 6.000 L 189.500 6.000 189.500 5.033 C 189.500 3.831,189.338 3.667,188.154 3.667 L 187.208 3.667 187.131 2.744 C 187.024 1.449,186.978 1.425,184.492 1.362 L 182.333 1.307 182.333 0.653 L 182.333 0.000 165.083 0.000 L 147.833 0.000 147.833 33.667 M210.667 4.986 C 210.667 7.729,210.712 10.091,210.768 10.236 C 210.859 10.473,211.932 10.500,221.184 10.500 L 231.500 10.500 231.500 38.917 L 231.500 67.333 237.250 67.333 L 243.000 67.333 243.000 38.917 L 243.000 10.500 253.300 10.500 C 261.089 10.500,263.649 10.451,263.800 10.300 C 263.947 10.153,264.000 8.756,264.000 5.050 L 264.000 0.000 237.333 0.000 L 210.667 0.000 210.667 4.986 M282.706 25.571 L 282.750 51.142 283.100 51.613 C 283.382 51.992,283.601 52.093,284.225 52.134 L 285.000 52.185 285.000 54.337 C 285.000 56.803,285.018 56.833,286.465 56.833 L 287.285 56.833 287.377 58.542 C 287.495 60.762,287.636 61.118,288.451 61.256 C 289.617 61.453,289.623 61.458,289.739 62.387 C 289.867 63.411,290.128 63.638,291.338 63.782 C 292.148 63.878,292.150 63.879,292.423 64.748 C 292.741 65.758,293.230 65.979,295.458 66.118 L 296.667 66.193 296.667 66.763 L 296.667 67.333 309.417 67.333 L 322.167 67.333 322.167 66.750 L 322.167 66.167 324.094 66.167 C 326.552 66.167,326.667 66.107,326.667 64.835 L 326.667 63.849 327.792 63.799 L 328.917 63.750 328.966 62.625 L 329.015 61.500 330.073 61.500 C 331.291 61.500,331.333 61.451,331.333 60.070 L 331.333 59.167 332.238 59.167 C 333.599 59.167,333.667 59.043,333.667 56.571 L 333.667 54.500 334.731 54.500 C 336.060 54.500,335.995 54.709,335.998 50.458 C 336.000 47.481,336.027 47.167,336.281 47.167 C 336.636 47.167,337.627 46.499,337.765 46.167 C 338.308 44.863,338.321 44.275,338.327 22.042 L 338.333 0.000 331.417 0.000 L 324.500 0.000 324.499 22.708 L 324.498 45.417 323.707 45.667 C 322.641 46.004,322.292 46.707,322.196 48.708 C 322.133 50.013,322.092 50.167,321.805 50.167 C 320.827 50.167,320.227 50.818,319.952 52.178 C 319.768 53.085,319.678 53.252,319.327 53.334 C 319.074 53.393,318.812 53.651,318.644 54.007 C 318.375 54.574,318.350 54.585,317.119 54.674 C 315.537 54.788,315.333 54.951,315.333 56.104 L 315.333 57.000 310.423 57.000 L 305.513 57.000 305.309 56.319 C 305.039 55.417,303.586 54.667,302.109 54.667 L 301.167 54.667 301.167 53.833 C 301.167 52.705,300.795 52.333,299.667 52.333 L 298.833 52.333 298.833 51.245 C 298.833 50.431,298.770 50.132,298.583 50.060 C 298.446 50.008,298.333 49.852,298.333 49.716 C 298.333 49.413,297.402 48.518,296.879 48.319 L 296.500 48.175 296.500 24.087 L 296.500 0.000 289.581 0.000 L 282.661 0.000 282.706 25.571 M368.833 0.659 L 368.833 1.318 367.708 1.367 L 366.583 1.417 366.534 2.534 L 366.485 3.652 365.368 3.701 L 364.250 3.750 364.201 4.875 L 364.151 6.000 363.254 6.000 C 361.903 6.000,361.833 6.127,361.833 8.587 L 361.833 10.651 360.802 10.700 C 359.421 10.767,359.470 10.446,359.532 19.025 C 359.590 27.067,359.466 26.409,360.957 26.596 L 361.833 26.705 361.835 28.228 C 361.839 31.008,362.032 31.329,363.708 31.332 C 364.151 31.333,364.167 31.363,364.167 32.230 C 364.167 33.344,364.378 33.541,365.671 33.635 C 366.586 33.701,366.659 33.738,366.826 34.217 C 367.082 34.951,367.463 35.310,368.193 35.507 C 368.545 35.602,368.833 35.752,368.833 35.840 C 368.833 35.934,369.755 36.000,371.083 36.000 L 373.333 36.000 373.333 36.905 C 373.333 38.295,373.412 38.333,376.315 38.333 L 378.773 38.333 379.012 38.875 C 379.150 39.190,379.475 39.521,379.788 39.667 C 380.084 39.804,380.328 40.008,380.330 40.119 C 380.337 40.526,381.021 40.667,382.989 40.667 L 385.000 40.667 385.000 41.500 C 385.000 42.621,385.373 43.000,386.479 43.000 L 387.291 43.000 387.374 43.864 C 387.478 44.946,387.890 45.333,388.935 45.333 L 389.667 45.333 389.667 48.833 L 389.667 52.333 388.762 52.333 C 387.580 52.333,387.333 52.580,387.333 53.762 L 387.333 54.667 386.429 54.667 C 385.246 54.667,385.000 54.913,385.000 56.095 L 385.000 57.000 379.188 57.000 L 373.376 57.000 373.269 56.190 C 373.100 54.917,372.822 54.763,370.567 54.691 L 368.667 54.631 368.667 53.682 C 368.667 52.467,368.516 52.333,367.147 52.333 C 366.034 52.333,366.026 52.330,365.915 51.826 C 365.496 49.919,362.505 49.914,362.086 51.819 C 361.978 52.312,361.959 52.320,360.780 52.368 L 359.583 52.417 359.534 53.542 L 359.485 54.667 358.498 54.667 C 357.181 54.667,357.167 54.703,357.167 58.142 C 357.167 61.667,357.104 61.500,358.434 61.500 L 359.500 61.500 359.500 62.403 C 359.500 63.783,359.544 63.833,360.748 63.833 L 361.793 63.833 361.865 64.830 C 361.959 66.128,361.859 66.075,364.347 66.138 L 366.500 66.193 366.500 66.763 L 366.500 67.333 379.083 67.333 L 391.667 67.333 391.667 66.750 L 391.667 66.167 392.717 66.167 C 394.012 66.167,394.167 66.021,394.167 64.808 L 394.167 63.849 395.292 63.799 L 396.417 63.750 396.466 62.625 L 396.515 61.500 397.474 61.500 C 398.672 61.500,398.833 61.338,398.833 60.133 L 398.833 59.167 399.417 59.167 L 400.000 59.167 400.000 47.667 L 400.000 36.167 399.417 36.167 L 398.833 36.167 398.833 35.200 C 398.833 33.994,398.672 33.833,397.467 33.833 L 396.500 33.833 396.500 32.867 C 396.500 31.663,396.339 31.500,395.144 31.500 L 394.187 31.500 394.076 30.758 C 393.874 29.410,393.384 29.178,390.726 29.171 C 389.270 29.167,389.198 29.149,389.105 28.777 C 388.939 28.116,388.350 27.518,387.754 27.406 C 387.444 27.348,387.149 27.195,387.100 27.067 C 387.029 26.882,386.524 26.833,384.672 26.833 L 382.333 26.833 382.333 26.019 C 382.333 24.919,381.843 24.679,379.326 24.546 L 377.502 24.450 377.085 23.739 C 376.782 23.221,376.526 22.996,376.147 22.912 C 375.839 22.845,375.593 22.669,375.544 22.482 C 375.474 22.214,375.301 22.167,374.397 22.167 L 373.333 22.167 373.332 20.708 C 373.331 18.247,373.160 17.907,371.756 17.566 L 370.917 17.362 371.750 17.345 C 373.139 17.317,373.333 16.966,373.333 14.489 L 373.333 12.833 374.153 12.833 C 375.444 12.833,375.500 12.781,375.500 11.566 L 375.500 10.500 381.395 10.500 L 387.291 10.500 387.374 11.364 C 387.487 12.543,387.861 12.833,389.264 12.833 C 390.270 12.833,390.338 12.859,390.579 13.326 C 390.719 13.596,391.079 13.934,391.378 14.076 C 391.677 14.218,391.995 14.503,392.086 14.709 C 392.246 15.073,392.316 15.083,394.750 15.079 C 398.522 15.073,398.609 15.011,398.783 12.161 L 398.884 10.500 399.442 10.500 L 400.000 10.500 400.000 7.083 L 400.000 3.667 399.333 3.667 C 398.764 3.667,398.667 3.615,398.667 3.311 C 398.667 1.782,397.855 1.333,395.093 1.333 L 394.167 1.333 394.167 0.667 L 394.167 0.000 381.500 0.000 L 368.833 0.000 368.833 0.659 M175.706 11.346 C 175.810 12.430,176.096 12.703,177.227 12.797 C 178.103 12.869,178.141 12.893,178.239 13.419 C 178.396 14.255,178.905 14.788,179.667 14.917 L 180.333 15.029 180.333 19.833 L 180.333 24.637 179.686 24.747 C 178.838 24.890,178.392 25.328,178.252 26.153 C 178.148 26.769,178.089 26.831,177.528 26.918 C 176.302 27.108,175.926 27.448,175.755 28.520 L 175.660 29.124 172.871 29.199 C 169.288 29.296,168.833 29.491,168.833 30.930 L 168.833 31.500 165.250 31.500 L 161.667 31.500 161.667 21.000 L 161.667 10.500 168.645 10.500 L 175.624 10.500 175.706 11.346 " stroke="none" fill="#fcfcfc" fill-rule="evenodd"></path><path id="path1" d="M75.667 0.667 L 75.667 1.333 74.700 1.333 C 73.359 1.333,73.333 1.381,73.333 3.837 L 73.333 5.941 72.297 6.096 C 71.006 6.288,71.038 6.189,71.017 9.958 L 71.000 12.833 70.033 12.833 C 68.685 12.833,68.667 12.869,68.667 15.450 L 68.667 17.667 68.242 17.667 C 66.783 17.667,66.500 18.331,66.500 21.758 L 66.500 24.500 65.656 24.500 C 64.146 24.500,64.167 24.459,64.167 27.504 L 64.167 30.164 63.592 30.540 C 63.276 30.747,62.984 31.042,62.944 31.195 C 62.902 31.355,62.667 31.498,62.394 31.529 L 61.917 31.583 61.870 33.875 L 61.824 36.167 61.370 36.168 C 59.585 36.171,59.505 36.357,59.502 40.458 L 59.500 43.167 58.434 43.167 C 57.128 43.167,57.167 43.088,57.167 45.742 L 57.167 47.791 56.520 47.894 C 55.145 48.114,54.833 48.967,54.833 52.508 L 54.833 54.667 53.926 54.667 C 52.604 54.667,52.500 54.875,52.500 57.530 L 52.500 59.653 51.822 59.856 C 51.063 60.084,50.500 60.683,50.500 61.263 C 50.500 61.474,50.425 61.693,50.333 61.750 C 50.233 61.812,50.167 62.946,50.167 64.593 L 50.167 67.333 57.083 67.333 L 64.000 67.333 64.000 65.605 L 64.000 63.876 64.846 63.794 C 66.230 63.662,66.242 63.628,66.302 59.994 L 66.354 56.833 67.246 56.833 C 68.724 56.833,68.667 56.931,68.667 54.399 L 68.667 52.167 69.075 52.167 C 70.554 52.167,70.880 51.457,70.969 48.042 L 71.039 45.333 71.853 45.333 C 73.241 45.333,73.333 45.134,73.333 42.160 L 73.333 39.653 74.027 38.993 C 74.429 38.611,74.885 38.333,75.110 38.333 C 75.500 38.333,75.500 38.333,75.500 36.023 L 75.500 33.713 76.329 33.615 C 77.905 33.428,77.833 33.604,77.833 29.911 L 77.833 26.667 78.736 26.667 C 80.229 26.667,80.167 26.776,80.167 24.149 L 80.167 21.833 80.815 21.833 C 82.209 21.833,82.466 21.136,82.488 17.292 L 82.500 15.167 83.375 15.164 C 84.756 15.160,84.742 15.186,84.804 12.417 L 84.858 9.987 85.471 9.738 C 85.889 9.569,86.255 9.221,86.625 8.642 L 87.167 7.795 87.167 5.564 L 87.167 3.333 87.589 3.333 C 88.920 3.333,89.333 2.756,89.333 0.896 L 89.333 0.000 82.500 0.000 L 75.667 0.000 75.667 0.667 " stroke="none" fill="#2394f4" fill-rule="evenodd"></path><path id="path2" d="" stroke="none" fill="#100c8f8" fill-rule="evenodd"></path><path id="path3" d="" stroke="none" fill="#100c8f8" fill-rule="evenodd"></path><path id="path4" d="" stroke="none" fill="#100c8f8" fill-rule="evenodd"></path></g></svg>